<?xml version="1.0" encoding="UTF-8"?>
<!--Generator: Apple Native CoreSVG 149-->
<!DOCTYPE svg
PUBLIC "-//W3C//DTD SVG 1.1//EN"
       "http://www.w3.org/Graphics/SVG/1.1/DTD/svg11.dtd">
<svg version="1.1" xmlns="http://www.w3.org/2000/svg" xmlns:xlink="http://www.w3.org/1999/xlink" width="3300" height="2200">
 <!--glyph: "uni100D49.medium", point size: 100.000000, font version: "Version 16.0d18e1", template writer version: "8"-->
 <g id="Notes">
  <rect height="2200" id="artboard" style="fill:white;opacity:1" width="3300" x="0" y="0"/>
  <line id="" style="fill:none;stroke:black;opacity:1;stroke-width:0.5;" x1="263" x2="3036" y1="292" y2="292"/>
  <text style="stroke:none;fill:black;font-family:-apple-system,&quot;SF Pro Display&quot;,&quot;SF Pro Text&quot;,Helvetica,sans-serif;font-weight:bold;" transform="matrix(1 0 0 1 263 322)">Weight/Scale Variations</text>
  <text style="stroke:none;fill:black;font-family:-apple-system,&quot;SF Pro Display&quot;,&quot;SF Pro Text&quot;,Helvetica,sans-serif;text-anchor:middle;" transform="matrix(1 0 0 1 559.711 322)">Ultralight</text>
  <text style="stroke:none;fill:black;font-family:-apple-system,&quot;SF Pro Display&quot;,&quot;SF Pro Text&quot;,Helvetica,sans-serif;text-anchor:middle;" transform="matrix(1 0 0 1 856.422 322)">Thin</text>
  <text style="stroke:none;fill:black;font-family:-apple-system,&quot;SF Pro Display&quot;,&quot;SF Pro Text&quot;,Helvetica,sans-serif;text-anchor:middle;" transform="matrix(1 0 0 1 1153.13 322)">Light</text>
  <text style="stroke:none;fill:black;font-family:-apple-system,&quot;SF Pro Display&quot;,&quot;SF Pro Text&quot;,Helvetica,sans-serif;text-anchor:middle;" transform="matrix(1 0 0 1 1449.84 322)">Regular</text>
  <text style="stroke:none;fill:black;font-family:-apple-system,&quot;SF Pro Display&quot;,&quot;SF Pro Text&quot;,Helvetica,sans-serif;text-anchor:middle;" transform="matrix(1 0 0 1 1746.56 322)">Medium</text>
  <text style="stroke:none;fill:black;font-family:-apple-system,&quot;SF Pro Display&quot;,&quot;SF Pro Text&quot;,Helvetica,sans-serif;text-anchor:middle;" transform="matrix(1 0 0 1 2043.27 322)">Semibold</text>
  <text style="stroke:none;fill:black;font-family:-apple-system,&quot;SF Pro Display&quot;,&quot;SF Pro Text&quot;,Helvetica,sans-serif;text-anchor:middle;" transform="matrix(1 0 0 1 2339.98 322)">Bold</text>
  <text style="stroke:none;fill:black;font-family:-apple-system,&quot;SF Pro Display&quot;,&quot;SF Pro Text&quot;,Helvetica,sans-serif;text-anchor:middle;" transform="matrix(1 0 0 1 2636.69 322)">Heavy</text>
  <text style="stroke:none;fill:black;font-family:-apple-system,&quot;SF Pro Display&quot;,&quot;SF Pro Text&quot;,Helvetica,sans-serif;text-anchor:middle;" transform="matrix(1 0 0 1 2933.4 322)">Black</text>
  <line id="" style="fill:none;stroke:black;opacity:1;stroke-width:0.5;" x1="263" x2="3036" y1="1903" y2="1903"/>
  <g id="" transform="matrix(1 0 0 1 263 1933)">
   <path d="M9.24805 0.830078C13.5547 0.830078 17.1387-2.74414 17.1387-7.05078C17.1387-11.3574 13.5449-14.9316 9.23828-14.9316C4.94141-14.9316 1.36719-11.3574 1.36719-7.05078C1.36719-2.74414 4.95117 0.830078 9.24805 0.830078ZM9.24805-0.654297C5.70312-0.654297 2.87109-3.49609 2.87109-7.05078C2.87109-10.6055 5.69336-13.4473 9.23828-13.4473C12.793-13.4473 15.6348-10.6055 15.6445-7.05078C15.6543-3.49609 12.8027-0.654297 9.24805-0.654297ZM6.39648-6.31836L8.50586-6.31836L8.50586-4.19922C8.50586-3.75977 8.79883-3.45703 9.22852-3.45703C9.67773-3.45703 9.9707-3.75977 9.9707-4.19922L9.9707-6.31836L12.0996-6.31836C12.5391-6.31836 12.8418-6.61133 12.8418-7.04102C12.8418-7.48047 12.5391-7.7832 12.0996-7.7832L9.9707-7.7832L9.9707-9.89258C9.9707-10.3418 9.67773-10.6445 9.22852-10.6445C8.79883-10.6445 8.50586-10.3418 8.50586-9.89258L8.50586-7.7832L6.39648-7.7832C5.94727-7.7832 5.64453-7.48047 5.64453-7.04102C5.64453-6.61133 5.94727-6.31836 6.39648-6.31836Z"/>
  </g>
  <g id="" transform="matrix(1 0 0 1 281.506 1933)">
   <path d="M11.709 2.91016C17.1582 2.91016 21.6699-1.61133 21.6699-7.05078C21.6699-12.5 17.1484-17.0117 11.6992-17.0117C6.25977-17.0117 1.74805-12.5 1.74805-7.05078C1.74805-1.61133 6.26953 2.91016 11.709 2.91016ZM11.709 1.25C7.09961 1.25 3.41797-2.44141 3.41797-7.05078C3.41797-11.6602 7.08984-15.3516 11.6992-15.3516C16.3086-15.3516 20-11.6602 20.0098-7.05078C20.0195-2.44141 16.3184 1.25 11.709 1.25ZM7.98828-6.23047L10.8789-6.23047L10.8789-3.32031C10.8789-2.83203 11.2109-2.5 11.6895-2.5C12.1777-2.5 12.5195-2.83203 12.5195-3.32031L12.5195-6.23047L15.4297-6.23047C15.918-6.23047 16.25-6.5625 16.25-7.04102C16.25-7.5293 15.918-7.87109 15.4297-7.87109L12.5195-7.87109L12.5195-10.7617C12.5195-11.2695 12.1777-11.6016 11.6895-11.6016C11.2109-11.6016 10.8789-11.2598 10.8789-10.7617L10.8789-7.87109L7.98828-7.87109C7.48047-7.87109 7.14844-7.5293 7.14844-7.04102C7.14844-6.5625 7.49023-6.23047 7.98828-6.23047Z"/>
  </g>
  <g id="" transform="matrix(1 0 0 1 304.924 1933)">
   <path d="M14.9707 5.66406C21.9336 5.66406 27.6953-0.0976562 27.6953-7.05078C27.6953-14.0137 21.9238-19.7754 14.9609-19.7754C8.00781-19.7754 2.25586-14.0137 2.25586-7.05078C2.25586-0.0976562 8.01758 5.66406 14.9707 5.66406ZM14.9707 3.84766C8.93555 3.84766 4.08203-1.01562 4.08203-7.05078C4.08203-13.0957 8.92578-17.9492 14.9609-17.9492C21.0059-17.9492 25.8594-13.0957 25.8691-7.05078C25.8789-1.01562 21.0156 3.84766 14.9707 3.84766ZM10.0586-6.14258L14.0625-6.14258L14.0625-2.12891C14.0625-1.5918 14.4336-1.2207 14.9512-1.2207C15.4883-1.2207 15.8594-1.5918 15.8594-2.12891L15.8594-6.14258L19.8828-6.14258C20.4102-6.14258 20.791-6.51367 20.791-7.03125C20.791-7.56836 20.4199-7.94922 19.8828-7.94922L15.8594-7.94922L15.8594-11.9531C15.8594-12.5098 15.4883-12.8809 14.9512-12.8809C14.4336-12.8809 14.0625-12.5 14.0625-11.9531L14.0625-7.94922L10.0586-7.94922C9.50195-7.94922 9.13086-7.56836 9.13086-7.03125C9.13086-6.51367 9.51172-6.14258 10.0586-6.14258Z"/>
  </g>
  <text style="stroke:none;fill:black;font-family:-apple-system,&quot;SF Pro Display&quot;,&quot;SF Pro Text&quot;,Helvetica,sans-serif;font-weight:bold;" transform="matrix(1 0 0 1 263 1953)">Design Variations</text>
  <text style="stroke:none;fill:black;font-family:-apple-system,&quot;SF Pro Display&quot;,&quot;SF Pro Text&quot;,Helvetica,sans-serif;" transform="matrix(1 0 0 1 263 1971)">Symbols are supported in up to nine weights and three scales.</text>
  <text style="stroke:none;fill:black;font-family:-apple-system,&quot;SF Pro Display&quot;,&quot;SF Pro Text&quot;,Helvetica,sans-serif;" transform="matrix(1 0 0 1 263 1989)">For optimal layout with text and other symbols, vertically align</text>
  <text style="stroke:none;fill:black;font-family:-apple-system,&quot;SF Pro Display&quot;,&quot;SF Pro Text&quot;,Helvetica,sans-serif;" transform="matrix(1 0 0 1 263 2007)">symbols with the adjacent text.</text>
  <line id="" style="fill:none;stroke:#00AEEF;stroke-width:0.5;opacity:1.0;" x1="776" x2="776" y1="1919" y2="1933"/>
  <g id="" transform="matrix(1 0 0 1 776 1933)">
   <path d="M3.31055 0.126953C3.82812 0.126953 4.08203-0.0683594 4.26758-0.605469L5.52734-4.0625L11.2891-4.0625L12.5488-0.605469C12.7344-0.0683594 12.9883 0.126953 13.4961 0.126953C14.0137 0.126953 14.3457-0.185547 14.3457-0.673828C14.3457-0.839844 14.3164-0.986328 14.2383-1.20117L9.6582-13.3887C9.43359-13.9941 9.0332-14.2871 8.4082-14.2871C7.80273-14.2871 7.39258-13.9941 7.17773-13.3984L2.59766-1.19141C2.51953-0.976562 2.49023-0.830078 2.49023-0.664062C2.49023-0.175781 2.80273 0.126953 3.31055 0.126953ZM6.00586-5.53711L8.37891-12.1094L8.42773-12.1094L10.8008-5.53711Z"/>
  </g>
  <line id="" style="fill:none;stroke:#00AEEF;stroke-width:0.5;opacity:1.0;" x1="792.836" x2="792.836" y1="1919" y2="1933"/>
  <text style="stroke:none;fill:black;font-family:-apple-system,&quot;SF Pro Display&quot;,&quot;SF Pro Text&quot;,Helvetica,sans-serif;font-weight:bold;" transform="matrix(1 0 0 1 776 1953)">Margins</text>
  <text style="stroke:none;fill:black;font-family:-apple-system,&quot;SF Pro Display&quot;,&quot;SF Pro Text&quot;,Helvetica,sans-serif;" transform="matrix(1 0 0 1 776 1971)">Leading and trailing margins on the left and right side of each symbol</text>
  <text style="stroke:none;fill:black;font-family:-apple-system,&quot;SF Pro Display&quot;,&quot;SF Pro Text&quot;,Helvetica,sans-serif;" transform="matrix(1 0 0 1 776 1989)">can be adjusted by modifying the x-location of the margin guidelines.</text>
  <text style="stroke:none;fill:black;font-family:-apple-system,&quot;SF Pro Display&quot;,&quot;SF Pro Text&quot;,Helvetica,sans-serif;" transform="matrix(1 0 0 1 776 2007)">Modifications are automatically applied proportionally to all</text>
  <text style="stroke:none;fill:black;font-family:-apple-system,&quot;SF Pro Display&quot;,&quot;SF Pro Text&quot;,Helvetica,sans-serif;" transform="matrix(1 0 0 1 776 2025)">scales and weights.</text>
  <g id="" transform="matrix(1 0 0 1 1289 1933)">
   <path d="M2.8418 1.86523L4.54102 3.57422C5.40039 4.44336 6.38672 4.38477 7.31445 3.35938L17.4902-7.85156C17.7539-7.76367 18.0273-7.7832 18.3398-7.8418L19.4043-8.03711L20.0684-7.36328L20.0293-6.80664C19.9902-6.30859 20.1172-5.92773 20.6055-5.44922L21.3672-4.70703C21.8457-4.22852 22.4609-4.19922 22.9297-4.66797L25.8398-7.58789C26.3086-8.05664 26.2891-8.65234 25.8105-9.13086L25.0391-9.89258C24.5605-10.3711 24.1895-10.5273 23.7109-10.4883L23.1348-10.4395L22.4902-11.0742L22.7344-12.1973C22.8613-12.7637 22.7051-13.2031 22.1191-13.7891L19.9219-15.9766C16.582-19.2969 12.1484-19.2188 9.25781-16.3281C8.83789-15.918 8.80859-15.3418 9.04297-14.9512C9.27734-14.5898 9.73633-14.3555 10.3809-14.5215C11.8457-14.8633 13.3691-14.9219 14.7949-13.9844L14.209-12.5293C14.0137-12.0508 13.9844-11.6504 14.1113-11.2891L3.04688-0.898438C2.06055 0.0195312 1.98242 0.996094 2.8418 1.86523ZM10.752-15.957C13.1836-17.7344 16.4746-17.4316 18.7012-15.2051L21.1328-12.793C21.3672-12.5586 21.4062-12.373 21.3379-12.0312L21.0156-10.5469L22.5195-9.0625L23.5059-9.12109C23.7598-9.13086 23.8379-9.11133 24.0332-8.91602L24.6094-8.33984L22.168-5.89844L21.5918-6.47461C21.3965-6.66992 21.3672-6.74805 21.377-7.01172L21.4453-7.98828L19.9512-9.47266L18.4277-9.21875C18.1055-9.15039 17.959-9.17969 17.7148-9.41406L15.7129-11.416C15.459-11.6504 15.4297-11.8164 15.5859-12.1875L16.4648-14.2773C14.9023-15.7324 12.8711-16.3574 10.8398-15.7617C10.6836-15.7227 10.625-15.8496 10.752-15.957ZM5.27344 2.30469L4.10156 1.14258C3.63281 0.683594 3.74023 0.341797 4.14062-0.0195312L14.9512-10.1953L16.416-8.71094L6.42578 2.27539C6.07422 2.67578 5.74219 2.77344 5.27344 2.30469Z"/>
  </g>
  <text style="stroke:none;fill:black;font-family:-apple-system,&quot;SF Pro Display&quot;,&quot;SF Pro Text&quot;,Helvetica,sans-serif;font-weight:bold;" transform="matrix(1 0 0 1 1289 1953)">Exporting</text>
  <text style="stroke:none;fill:black;font-family:-apple-system,&quot;SF Pro Display&quot;,&quot;SF Pro Text&quot;,Helvetica,sans-serif;" transform="matrix(1 0 0 1 1289 1971)">Symbols should be outlined when exporting to ensure the</text>
  <text style="stroke:none;fill:black;font-family:-apple-system,&quot;SF Pro Display&quot;,&quot;SF Pro Text&quot;,Helvetica,sans-serif;" transform="matrix(1 0 0 1 1289 1989)">design is preserved when submitting to Xcode.</text>
  <text id="template-version" style="stroke:none;fill:black;font-family:-apple-system,&quot;SF Pro Display&quot;,&quot;SF Pro Text&quot;,Helvetica,sans-serif;text-anchor:end;" transform="matrix(1 0 0 1 3036 1933)">Template v.2.0</text>
  <text style="stroke:none;fill:black;font-family:-apple-system,&quot;SF Pro Display&quot;,&quot;SF Pro Text&quot;,Helvetica,sans-serif;text-anchor:end;" transform="matrix(1 0 0 1 3036 1951)">Requires Xcode 12 or greater</text>
  <text style="stroke:none;fill:black;font-family:-apple-system,&quot;SF Pro Display&quot;,&quot;SF Pro Text&quot;,Helvetica,sans-serif;text-anchor:end;" transform="matrix(1 0 0 1 3036 1969)">Generated from shuffle.circle</text>
  <text style="stroke:none;fill:black;font-family:-apple-system,&quot;SF Pro Display&quot;,&quot;SF Pro Text&quot;,Helvetica,sans-serif;text-anchor:end;" transform="matrix(1 0 0 1 3036 1987)">Typeset at 100 points</text>
  <text style="stroke:none;fill:black;font-family:-apple-system,&quot;SF Pro Display&quot;,&quot;SF Pro Text&quot;,Helvetica,sans-serif;" transform="matrix(1 0 0 1 263 726)">Small</text>
  <text style="stroke:none;fill:black;font-family:-apple-system,&quot;SF Pro Display&quot;,&quot;SF Pro Text&quot;,Helvetica,sans-serif;" transform="matrix(1 0 0 1 263 1156)">Medium</text>
  <text style="stroke:none;fill:black;font-family:-apple-system,&quot;SF Pro Display&quot;,&quot;SF Pro Text&quot;,Helvetica,sans-serif;" transform="matrix(1 0 0 1 263 1586)">Large</text>
 </g>
 <g id="Guides">
  <g id="H-reference" style="fill:#27AAE1;stroke:none;" transform="matrix(1 0 0 1 339 696)">
   <path d="M0.976562 0L3.66211 0L12.9883-24.4629L45.752-24.4629L55.127 0L57.7637 0L30.6152-70.459L28.125-70.459ZM29.3457-67.1387L29.4434-67.1387L44.873-26.709L13.8672-26.709Z"/>
  </g>
  <line id="Baseline-S" style="fill:none;stroke:#27AAE1;opacity:1;stroke-width:0.5;" x1="263" x2="3036" y1="696" y2="696"/>
  <line id="Capline-S" style="fill:none;stroke:#27AAE1;opacity:1;stroke-width:0.5;" x1="263" x2="3036" y1="625.541" y2="625.541"/>
  <g id="H-reference" style="fill:#27AAE1;stroke:none;" transform="matrix(1 0 0 1 339 1126)">
   <path d="M0.976562 0L3.66211 0L12.9883-24.4629L45.752-24.4629L55.127 0L57.7637 0L30.6152-70.459L28.125-70.459ZM29.3457-67.1387L29.4434-67.1387L44.873-26.709L13.8672-26.709Z"/>
  </g>
  <line id="Baseline-M" style="fill:none;stroke:#27AAE1;opacity:1;stroke-width:0.5;" x1="263" x2="3036" y1="1126" y2="1126"/>
  <line id="Capline-M" style="fill:none;stroke:#27AAE1;opacity:1;stroke-width:0.5;" x1="263" x2="3036" y1="1055.54" y2="1055.54"/>
  <g id="H-reference" style="fill:#27AAE1;stroke:none;" transform="matrix(1 0 0 1 339 1556)">
   <path d="M0.976562 0L3.66211 0L12.9883-24.4629L45.752-24.4629L55.127 0L57.7637 0L30.6152-70.459L28.125-70.459ZM29.3457-67.1387L29.4434-67.1387L44.873-26.709L13.8672-26.709Z"/>
  </g>
  <line id="Baseline-L" style="fill:none;stroke:#27AAE1;opacity:1;stroke-width:0.5;" x1="263" x2="3036" y1="1556" y2="1556"/>
  <line id="Capline-L" style="fill:none;stroke:#27AAE1;opacity:1;stroke-width:0.5;" x1="263" x2="3036" y1="1485.54" y2="1485.54"/>
  <line id="left-margin" style="fill:none;stroke:#00AEEF;stroke-width:0.5;opacity:1.0;" x1="1391.3" x2="1391.3" y1="1030.79" y2="1150.12"/>
  <line id="right-margin" style="fill:none;stroke:#00AEEF;stroke-width:0.5;opacity:1.0;" x1="1508.39" x2="1508.39" y1="1030.79" y2="1150.12"/>
 </g>
 <g id="Symbols">
  <g id="Black-L" transform="matrix(1 0 0 1 2854.05 1556)">
   <path d="M79.3457 32.8613C116.748 32.8613 147.412 2.19727 147.412-35.2051C147.412-72.6074 116.748-103.271 79.2969-103.271C41.8945-103.271 11.2793-72.6074 11.2793-35.2051C11.2793 2.19727 41.9434 32.8613 79.3457 32.8613ZM79.3457 12.4023C52.9785 12.4023 31.7383-8.83789 31.7383-35.2051C31.7383-61.5723 52.9297-82.8125 79.2969-82.8125C105.664-82.8125 126.953-61.5723 126.953-35.2051C127.002-8.83789 105.713 12.4023 79.3457 12.4023ZM41.4551-18.9941C41.4551-16.2109 43.6523-14.1113 46.4355-14.1113L53.6133-14.1113C59.1309-14.1113 62.7441-15.918 65.918-19.873L72.2168-27.7344L78.0762-20.4102C81.6406-15.918 86.6211-14.1113 92.2363-14.1113L96.6309-14.1113L96.6309-8.49609C96.6309-6.10352 98.0957-4.58984 100.439-4.58984C101.514-4.58984 102.344-4.98047 103.125-5.56641L115.43-16.0645C117.139-17.4805 117.139-20.0195 115.43-21.5332L103.174-32.0312C102.49-32.6172 101.562-33.0078 100.439-33.0078C98.0957-33.0078 96.6309-31.4453 96.6309-29.0527L96.6309-23.877L92.4316-23.877C88.5742-23.877 86.1816-25.0977 83.9355-27.9297L78.1738-35.1074L84.0332-42.4316C86.4746-45.5078 88.0859-46.4355 91.7969-46.4355L96.6309-46.4355L96.6309-41.3574C96.6309-39.0137 98.0957-37.4023 100.439-37.4023C101.562-37.4023 102.49-37.793 103.174-38.3789L115.43-48.877C117.139-50.3906 117.188-52.9297 115.43-54.3945L103.174-64.8438C102.393-65.4297 101.562-65.8203 100.439-65.8203C98.0957-65.8203 96.6309-64.3066 96.6309-61.9141L96.6309-56.25L92.334-56.25C86.1816-56.25 81.8359-54.541 77.4414-49.1211L72.2168-42.627L65.918-50.4395C62.7441-54.4434 58.3984-56.25 52.8809-56.25L46.4355-56.25C43.6523-56.25 41.4551-54.1016 41.4551-51.3672C41.4551-48.6328 43.6523-46.4355 46.4355-46.4355L51.6113-46.4355C55.3223-46.4355 58.1543-45.2637 60.4492-42.4316L66.2598-35.1562L60.4492-27.9297C58.1543-25.0977 56.0547-23.877 52.2949-23.877L46.4355-23.877C43.6035-23.877 41.4551-21.7285 41.4551-18.9941Z"/>
  </g>
  <g id="Heavy-L" transform="matrix(1 0 0 1 2558.39 1556)">
   <path d="M78.2715 31.7871C115.088 31.7871 145.312 1.5625 145.312-35.2051C145.312-72.0215 115.039-102.246 78.2715-102.246C41.4551-102.246 11.2793-72.0215 11.2793-35.2051C11.2793 1.5625 41.5039 31.7871 78.2715 31.7871ZM78.2715 14.0137C51.0254 14.0137 29.0527-7.95898 29.0527-35.2051C29.0527-62.5 50.9766-84.4727 78.2715-84.4727C105.518-84.4727 127.49-62.5 127.539-35.2051C127.539-7.95898 105.566 14.0137 78.2715 14.0137ZM40.1367-18.8477C40.1367-16.1621 42.2363-14.1602 44.9219-14.1602L52.1973-14.1602C57.8125-14.1602 61.377-15.9668 64.7949-20.1172L71.2402-28.0273L77.3438-20.5566C81.0059-15.9668 85.6934-14.1602 91.3574-14.1602L95.8984-14.1602L95.8984-8.25195C95.8984-5.95703 97.3633-4.49219 99.6094-4.49219C100.684-4.49219 101.514-4.83398 102.295-5.41992L114.648-15.8203C116.357-17.2852 116.357-19.8242 114.648-21.2891L102.295-31.7383C101.611-32.3242 100.684-32.7148 99.6094-32.7148C97.3633-32.7148 95.8984-31.2012 95.8984-28.8574L95.8984-23.4863L91.5039-23.4863C87.8418-23.4863 85.5469-24.6582 83.1543-27.5879L77.0508-35.1562L83.252-42.8223C85.7422-45.8984 87.4512-46.875 91.0156-46.875L95.8984-46.875L95.8984-41.5039C95.8984-39.2578 97.3633-37.6953 99.6094-37.6953C100.684-37.6953 101.611-38.0859 102.295-38.6719L114.648-49.0723C116.357-50.5371 116.406-53.125 114.648-54.5898L102.295-64.9414C101.562-65.5273 100.732-65.918 99.6094-65.918C97.3633-65.918 95.8984-64.4043 95.8984-62.1094L95.8984-56.25L91.4551-56.25C85.3516-56.25 81.2012-54.541 76.8555-49.2188L71.2402-42.334L64.7949-50.2441C61.377-54.4434 57.2266-56.25 51.6113-56.25L44.9219-56.25C42.2363-56.25 40.1367-54.1992 40.1367-51.5137C40.1367-48.9258 42.2363-46.8262 44.9219-46.8262L50.6836-46.8262C54.2969-46.8262 56.8848-45.752 59.2285-42.7734L65.4297-35.2051L59.2285-27.5879C56.8848-24.707 54.834-23.4863 51.2207-23.4863L44.9219-23.4863C42.1875-23.4863 40.1367-21.4844 40.1367-18.8477Z"/>
  </g>
  <g id="Bold-L" transform="matrix(1 0 0 1 2262.88 1556)">
   <path d="M77.0996 30.5664C113.232 30.5664 142.92 0.878906 142.92-35.2539C142.92-71.3379 113.184-101.074 77.0508-101.074C40.9668-101.074 11.2793-71.3379 11.2793-35.2539C11.2793 0.878906 41.0156 30.5664 77.0996 30.5664ZM77.0996 15.8203C48.8281 15.8203 26.0742-6.98242 26.0742-35.2539C26.0742-63.5254 48.7793-86.2793 77.0508-86.2793C105.371-86.2793 128.125-63.5254 128.174-35.2539C128.174-6.98242 105.371 15.8203 77.0996 15.8203ZM38.6719-18.7012C38.6719-16.1133 40.625-14.2578 43.2617-14.2578L50.6348-14.2578C56.2988-14.2578 59.8633-16.0156 63.5254-20.4102L70.1172-28.418L76.5137-20.6543C80.3711-16.0156 84.668-14.209 90.3809-14.209L95.0684-14.209L95.0684-8.00781C95.0684-5.81055 96.4844-4.3457 98.7305-4.3457C99.707-4.3457 100.586-4.6875 101.318-5.27344L113.721-15.5762C115.479-17.041 115.479-19.5801 113.721-21.0938L101.367-31.3965C100.684-31.9824 99.7559-32.373 98.7305-32.373C96.4844-32.373 95.0684-30.8594 95.0684-28.6621L95.0684-23.0957L90.5273-23.0957C87.0117-23.0957 84.8145-24.2188 82.3242-27.2461L75.7324-35.2051L82.373-43.2129C84.9609-46.3379 86.7188-47.3145 90.1855-47.3145L95.0684-47.3145L95.0684-41.748C95.0684-39.5508 96.4844-38.0371 98.7305-38.0371C99.7559-38.0371 100.684-38.3789 101.367-39.0137L113.721-49.2676C115.479-50.7324 115.527-53.3203 113.721-54.7852L101.367-65.0879C100.635-65.6738 99.7559-66.0645 98.7305-66.0645C96.4844-66.0645 95.0684-64.5996 95.0684-62.3535L95.0684-56.2012L90.4297-56.2012C84.4727-56.2012 80.5176-54.4922 76.2207-49.3164L70.1172-41.9922L63.5254-50C59.8633-54.4434 55.9082-56.2012 50.2441-56.2012L43.2617-56.2012C40.625-56.2012 38.6719-54.2969 38.6719-51.7578C38.6719-49.2188 40.6738-47.3145 43.2617-47.3145L49.707-47.3145C53.0762-47.3145 55.4199-46.2402 57.9102-43.2129L64.502-35.2051L57.9102-27.2461C55.4199-24.2676 53.418-23.0957 50.0488-23.0957L43.2617-23.0957C40.625-23.0957 38.6719-21.1914 38.6719-18.7012Z"/>
  </g>
  <g id="Semibold-L" transform="matrix(1 0 0 1 1966.97 1556)">
   <path d="M76.2695 29.7363C111.914 29.7363 141.309 0.390625 141.309-35.2539C141.309-70.8984 111.865-100.244 76.2695-100.244C40.625-100.244 11.2793-70.8984 11.2793-35.2539C11.2793 0.390625 40.6738 29.7363 76.2695 29.7363ZM76.2695 17.041C47.3145 17.041 24.0234-6.25 24.0234-35.2539C24.0234-64.209 47.2656-87.5488 76.2695-87.5488C105.225-87.5488 128.564-64.209 128.613-35.2539C128.662-6.25 105.273 17.041 76.2695 17.041ZM37.6465-18.5547C37.6465-16.0645 39.5508-14.3066 42.1387-14.3066L49.5117-14.3066C55.2246-14.3066 58.8379-16.0156 62.6465-20.6055L69.3848-28.6621L75.9766-20.752C79.8828-16.0156 83.9355-14.2578 89.6973-14.2578L94.4824-14.2578L94.4824-7.86133C94.4824-5.71289 95.8984-4.24805 98.0957-4.24805C99.0234-4.24805 99.9023-4.58984 100.684-5.17578L113.086-15.4297C114.893-16.8457 114.893-19.4336 113.086-20.9473L100.732-31.1523C100-31.7871 99.0723-32.1289 98.0957-32.1289C95.8984-32.1289 94.4824-30.6641 94.4824-28.5156L94.4824-22.8516L89.7949-22.8516C86.4258-22.8516 84.3262-23.877 81.7383-27.002L74.8535-35.2051L81.7871-43.5059C84.375-46.6309 86.2305-47.6074 89.5996-47.6074L94.4824-47.6074L94.4824-41.8457C94.4824-39.7461 95.8984-38.2324 98.0957-38.2324C99.0723-38.2324 100-38.623 100.732-39.209L113.086-49.4141C114.893-50.8789 114.893-53.4668 113.086-54.9316L100.732-65.1367C100-65.7715 99.1211-66.1133 98.0957-66.1133C95.8984-66.1133 94.4824-64.6973 94.4824-62.5L94.4824-56.2012L89.7461-56.2012C83.8379-56.2012 80.0293-54.4922 75.7812-49.4141L69.3848-41.7969L62.6465-49.8047C58.7891-54.4434 54.9805-56.2012 49.2676-56.2012L42.1387-56.2012C39.5508-56.2012 37.6465-54.3945 37.6465-51.8555C37.6465-49.4629 39.5996-47.6074 42.1387-47.6074L48.9746-47.6074C52.2461-47.6074 54.4434-46.582 56.9824-43.457L63.8672-35.2539L56.9824-27.002C54.4434-23.9746 52.4414-22.8516 49.2188-22.8516L42.1387-22.8516C39.5508-22.8516 37.6465-20.9961 37.6465-18.5547Z"/>
  </g>
  <g id="Medium-L" transform="matrix(1 0 0 1 1670.87 1556)">
   <path d="M75.6836 29.1504C110.938 29.1504 140.088 0 140.088-35.2539C140.088-70.5078 110.889-99.6582 75.6348-99.6582C40.3809-99.6582 11.2793-70.5078 11.2793-35.2539C11.2793 0 40.3809 29.1504 75.6836 29.1504ZM75.6836 18.0176C46.1426 18.0176 22.4609-5.76172 22.4609-35.2539C22.4609-64.7461 46.1426-88.5254 75.6348-88.5254C105.127-88.5254 128.906-64.7461 128.906-35.2539C128.955-5.76172 105.176 18.0176 75.6836 18.0176ZM36.8652-18.457C36.8652-16.0645 38.7207-14.3555 41.2598-14.3555L48.6816-14.3555C54.4434-14.3555 58.0566-16.0645 62.0117-20.752L68.7988-28.8574L75.5371-20.8496C79.541-16.0645 83.3496-14.3066 89.209-14.3066L94.043-14.3066L94.043-7.71484C94.043-5.61523 95.459-4.19922 97.6074-4.19922C98.5352-4.19922 99.4141-4.54102 100.195-5.07812L112.646-15.2832C114.453-16.748 114.404-19.2871 112.646-20.8008L100.244-30.957C99.5117-31.5918 98.584-31.9824 97.6074-31.9824C95.459-31.9824 94.043-30.5176 94.043-28.418L94.043-22.6074L89.3066-22.6074C85.9863-22.6074 83.9355-23.6816 81.2988-26.8066L74.1699-35.2539L81.2988-43.7012C83.9355-46.875 85.8398-47.8516 89.1602-47.8516L94.043-47.8516L94.043-41.9922C94.043-39.8438 95.459-38.4277 97.6074-38.4277C98.584-38.4277 99.5117-38.7695 100.244-39.4043L112.646-49.5605C114.453-51.0254 114.404-53.5645 112.646-55.0293L100.244-65.2344C99.5117-65.8691 98.6328-66.1621 97.6074-66.1621C95.459-66.1621 94.043-64.7461 94.043-62.6465L94.043-56.2012L89.209-56.2012C83.3496-56.2012 79.6875-54.4434 75.4395-49.4629L68.7988-41.6016L62.0117-49.707C58.0078-54.4434 54.2969-56.2012 48.5352-56.2012L41.2598-56.2012C38.7207-56.2012 36.8652-54.4434 36.8652-52.002C36.8652-49.6094 38.7695-47.8516 41.2598-47.8516L48.4863-47.8516C51.6602-47.8516 53.6621-46.8262 56.2988-43.7012L63.4277-35.2539L56.2988-26.8066C53.6621-23.7305 51.709-22.6074 48.584-22.6074L41.2598-22.6074C38.7207-22.6074 36.8652-20.8984 36.8652-18.457Z"/>
  </g>
  <g id="Regular-L" transform="matrix(1 0 0 1 1374.97 1556)">
   <path d="M74.8535 28.3203C109.668 28.3203 138.477-0.488281 138.477-35.2539C138.477-70.0684 109.619-98.877 74.8047-98.877C40.0391-98.877 11.2793-70.0684 11.2793-35.2539C11.2793-0.488281 40.0879 28.3203 74.8535 28.3203ZM74.8535 19.2383C44.6777 19.2383 20.4102-5.07812 20.4102-35.2539C20.4102-65.4785 44.6289-89.7461 74.8047-89.7461C105.029-89.7461 129.297-65.4785 129.346-35.2539C129.395-5.07812 105.078 19.2383 74.8535 19.2383ZM35.8887-18.3594C35.8887-16.0156 37.6465-14.4043 40.0879-14.4043L47.6074-14.4043C53.418-14.4043 57.0312-16.1133 61.1328-20.9473L68.0664-29.1016L75-20.9473C79.0527-16.1133 82.666-14.3555 88.5254-14.3555L93.457-14.3555L93.457-7.56836C93.457-5.51758 94.9219-4.10156 96.9727-4.10156C97.9004-4.10156 98.7793-4.39453 99.5605-4.98047L112.012-15.1367C113.818-16.6016 113.818-19.1406 112.012-20.6543L99.6094-30.7617C98.877-31.3965 97.9492-31.7383 96.9727-31.7383C94.9219-31.7383 93.457-30.3223 93.457-28.2715L93.457-22.3633L88.5742-22.3633C85.4004-22.3633 83.4473-23.3398 80.7129-26.5625L73.291-35.2539L80.7129-43.9941C83.3984-47.168 85.3516-48.1934 88.5742-48.1934L93.457-48.1934L93.457-42.0898C93.457-40.0391 94.9219-38.623 96.9727-38.623C97.9492-38.623 98.877-38.9648 99.6094-39.5996L112.012-49.707C113.818-51.123 113.818-53.7109 112.012-55.1758L99.6094-65.332C98.877-65.9668 97.998-66.2598 96.9727-66.2598C94.9219-66.2598 93.457-64.8438 93.457-62.793L93.457-56.2012L88.5254-56.2012C82.7637-56.2012 79.1992-54.4434 75-49.5605L68.0664-41.4062L61.1328-49.5117C56.9824-54.3945 53.3691-56.2012 47.6074-56.2012L40.0879-56.2012C37.6465-56.2012 35.8887-54.4922 35.8887-52.1484C35.8887-49.8047 37.6953-48.1445 40.0879-48.1445L47.8027-48.1445C50.8301-48.1445 52.6855-47.168 55.4199-43.9453L62.793-35.2539L55.4199-26.5625C52.6855-23.4375 50.7812-22.3633 47.8027-22.3633L40.0879-22.3633C37.6465-22.3633 35.8887-20.7031 35.8887-18.3594Z"/>
  </g>
  <g id="Light-L" transform="matrix(1 0 0 1 1079.18 1556)">
   <path d="M73.9258 27.3926C108.301 27.3926 136.621-0.927734 136.621-35.2539C136.621-69.6289 108.252-97.9492 73.9258-97.9492C39.5508-97.9492 11.2793-69.6289 11.2793-35.2539C11.2793-0.927734 39.5996 27.3926 73.9258 27.3926ZM73.9258 20.5078C43.1152 20.5078 18.2129-4.44336 18.2129-35.2539C18.2129-66.1133 43.0664-91.0156 73.9258-91.0156C104.736-91.0156 129.688-66.1133 129.736-35.2539C129.736-4.44336 104.785 20.5078 73.9258 20.5078ZM35.3516-18.1641C35.3516-16.1621 36.8164-14.7461 38.8672-14.7461L46.582-14.7461C52.2949-14.7461 55.7617-16.4062 59.8633-21.1914L67.2363-29.9805L74.6094-21.1914C78.6621-16.4062 82.1777-14.6973 87.8906-14.6973L92.8223-14.6973L92.8223-7.22656C92.8223-5.46875 94.043-4.24805 95.8984-4.24805C96.6797-4.24805 97.4121-4.54102 98.1445-5.07812L110.84-15.1367C112.549-16.4551 112.5-18.8965 110.84-20.2637L98.1934-30.3223C97.4609-30.8594 96.7285-31.1523 95.8984-31.1523C94.043-31.1523 92.8223-29.9316 92.8223-28.125L92.8223-21.582L87.793-21.582C84.4727-21.582 82.3242-22.6562 79.3945-26.123L71.6797-35.2539L79.3945-44.3848C82.2754-47.8516 84.4238-48.9746 87.793-48.9746L92.8223-48.9746L92.8223-42.2363C92.8223-40.4785 94.043-39.2578 95.8984-39.2578C96.7285-39.2578 97.4609-39.502 98.1934-40.0879L110.84-50.1465C112.549-51.5137 112.5-53.9062 110.84-55.2734L98.1934-65.2832C97.4609-65.8691 96.7285-66.1133 95.8984-66.1133C94.043-66.1133 92.8223-64.9414 92.8223-63.1348L92.8223-55.8105L87.8906-55.8105C82.2266-55.8105 78.7598-54.1504 74.6094-49.3164L67.1875-40.5273L59.8633-49.2676C55.7129-54.1016 52.2461-55.8105 46.582-55.8105L38.8672-55.8105C36.8164-55.8105 35.3516-54.3945 35.3516-52.3438C35.3516-50.3906 36.9141-48.9258 38.8672-48.9258L46.8262-48.9258C50.0488-48.9258 52.0996-47.8516 55.0293-44.3359L62.7441-35.2539L55.0293-26.1719C52.0996-22.7539 50-21.582 46.8262-21.582L38.8672-21.582C36.8652-21.582 35.3516-20.1172 35.3516-18.1641Z"/>
  </g>
  <g id="Thin-L" transform="matrix(1 0 0 1 783.693 1556)">
   <path d="M72.7051 26.1719C106.494 26.1719 134.18-1.51367 134.18-35.2539C134.18-69.043 106.494-96.7285 72.7051-96.7285C38.9648-96.7285 11.2793-69.043 11.2793-35.2539C11.2793-1.51367 38.9648 26.1719 72.7051 26.1719ZM72.7051 22.168C41.0156 22.168 15.2832-3.56445 15.2832-35.2539C15.2832-66.9922 41.0156-92.7246 72.7051-92.7246C104.395-92.7246 130.176-66.9922 130.176-35.2539C130.176-3.56445 104.443 22.168 72.7051 22.168ZM34.6191-17.8711C34.6191-16.3086 35.7422-15.1855 37.2559-15.1855L45.2637-15.1855C50.7812-15.1855 54.1016-16.8457 58.1055-21.582L66.1133-31.1035L74.1211-21.582C78.1738-16.8457 81.4941-15.1367 87.0117-15.1367L91.9434-15.1367L91.9434-6.83594C91.9434-5.37109 92.8711-4.49219 94.4336-4.49219C95.0684-4.49219 95.6055-4.6875 96.2891-5.17578L109.326-15.0879C110.889-16.3086 110.791-18.6035 109.326-19.7754L96.2891-29.7363C95.6543-30.2246 95.1172-30.4199 94.4336-30.4199C92.8711-30.4199 91.9434-29.4434 91.9434-27.9785L91.9434-20.5078L86.7676-20.5078C83.252-20.5078 80.9082-21.7773 77.6855-25.5859L69.5801-35.2539L77.6855-44.9219C80.8105-48.7305 83.252-50.0488 86.7676-50.0488L91.9434-50.0488L91.9434-42.4316C91.9434-41.0156 92.8711-40.0391 94.4336-40.0391C95.1172-40.0391 95.6543-40.2344 96.2891-40.7227L109.326-50.7324C110.889-51.9531 110.791-54.248 109.326-55.3711L96.2891-65.2832C95.6543-65.7715 95.1172-65.9668 94.4336-65.9668C92.8711-65.9668 91.9434-65.0879 91.9434-63.623L91.9434-55.3223L87.0117-55.3223C81.4941-55.3223 78.1738-53.7109 74.1211-48.9746L66.1133-39.4043L58.1055-48.877C54.1016-53.6621 50.7324-55.3223 45.2637-55.3223L37.2559-55.3223C35.7422-55.3223 34.6191-54.1992 34.6191-52.6367C34.6191-51.1719 35.8398-49.9512 37.2559-49.9512L45.5566-49.9512C49.0234-49.9512 51.3672-48.7305 54.5898-44.873L62.6465-35.2539L54.5898-25.6836C51.3672-21.8262 49.0234-20.5078 45.5566-20.5078L37.2559-20.5078C35.8398-20.5078 34.6191-19.3359 34.6191-17.8711Z"/>
  </g>
  <g id="Ultralight-L" transform="matrix(1 0 0 1 487.616 1556)">
   <path d="M72.1191 25.5371C105.566 25.5371 132.91-1.80664 132.91-35.2539C132.91-68.75 105.566-96.0938 72.1191-96.0938C38.623-96.0938 11.2793-68.75 11.2793-35.2539C11.2793-1.80664 38.623 25.5371 72.1191 25.5371ZM72.1191 23.0469C39.9414 23.0469 13.7695-3.125 13.7695-35.2539C13.7695-67.4316 39.9414-93.6035 72.1191-93.6035C104.248-93.6035 130.42-67.4316 130.42-35.2539C130.42-3.125 104.248 23.0469 72.1191 23.0469ZM34.2773-17.7734C34.2773-16.4062 35.2051-15.4297 36.4258-15.4297L44.5801-15.4297C50-15.4297 53.2227-17.041 57.2754-21.7773L65.5273-31.7383L73.877-21.7773C77.8809-17.041 81.1523-15.332 86.5723-15.332L91.4551-15.332L91.4551-6.64062C91.4551-5.32227 92.2852-4.58984 93.6523-4.58984C94.2871-4.58984 94.7266-4.73633 95.3125-5.22461L108.545-15.0879C110.01-16.2598 109.912-18.457 108.545-19.5312L95.3125-29.3945C94.6777-29.8828 94.2871-30.0293 93.6523-30.0293C92.2852-30.0293 91.4551-29.1992 91.4551-27.9297L91.4551-19.9707L86.2305-19.9707C82.6172-19.9707 80.1758-21.2891 76.8066-25.3418L68.5059-35.2539L76.8066-45.2148C80.0781-49.1699 82.6172-50.5859 86.2305-50.5859L91.4551-50.5859L91.4551-42.5781C91.4551-41.2598 92.2852-40.4785 93.6523-40.4785C94.2871-40.4785 94.6777-40.5762 95.3125-41.0645L108.545-51.0254C110.01-52.1973 109.912-54.3945 108.545-55.4199L95.3125-65.2832C94.6777-65.7227 94.2871-65.8691 93.6523-65.8691C92.2852-65.8691 91.4551-65.1367 91.4551-63.8672L91.4551-55.0781L86.5723-55.0781C81.1523-55.0781 77.8809-53.5156 73.877-48.7793L65.5273-38.7695L57.2754-48.6816C53.2715-53.418 50-55.0781 44.5801-55.0781L36.4258-55.0781C35.2051-55.0781 34.2773-54.1504 34.2773-52.7832C34.2773-51.5625 35.3027-50.4883 36.4258-50.4883L44.873-50.4883C48.4863-50.4883 50.9766-49.1699 54.3457-45.1172L62.5977-35.2539L54.3457-25.3906C50.9766-21.3867 48.4863-19.9707 44.873-19.9707L36.4258-19.9707C35.3027-19.9707 34.2773-18.8965 34.2773-17.7734Z"/>
  </g>
  <g id="Black-M" transform="matrix(1 0 0 1 2870.97 1126)">
   <path d="M62.4023 18.457C91.9922 18.457 116.113-5.61523 116.113-35.2051C116.113-64.7949 91.9922-88.8672 62.4023-88.8672C32.8125-88.8672 8.74023-64.7949 8.74023-35.2051C8.74023-5.61523 32.8125 18.457 62.4023 18.457ZM62.4023 0.195312C42.8711 0.195312 27.002-15.625 27.002-35.2051C27.002-54.7363 42.8711-70.6055 62.4023-70.6055C81.9824-70.6055 97.8027-54.7363 97.8027-35.2051C97.8027-15.625 81.9824 0.195312 62.4023 0.195312ZM33.5449-22.7539C33.5449-20.6055 35.2539-18.9453 37.3047-18.9453L42.9199-18.9453C47.0215-18.9453 49.7559-20.3613 51.9043-23.1445L56.7871-29.4434L61.2305-23.7305C63.8184-20.3613 68.1152-18.9453 72.2656-18.9453L75.4883-18.9453L75.4883-14.6484C75.4883-12.8418 76.5625-11.7188 78.2715-11.7188C79.1504-11.7188 79.7363-12.0117 80.2734-12.4512L89.8926-20.6543C91.1133-21.6797 91.1133-23.6328 89.8926-24.6582L80.2734-32.9102C79.7852-33.3496 79.1504-33.5938 78.2715-33.5938C76.5625-33.5938 75.4883-32.4707 75.4883-30.6641L75.4883-26.4648L72.4121-26.4648C69.1406-26.4648 67.041-27.5391 65.332-29.7852L61.2305-35.1074L65.4297-40.5273C67.3828-43.0176 68.6035-43.7988 71.6797-43.7988L75.4883-43.7988L75.4883-39.7949C75.4883-38.0371 76.5625-36.8652 78.2715-36.8652C79.1504-36.8652 79.7852-37.1094 80.2734-37.5488L89.8926-45.8008C91.1133-46.9238 91.1621-48.8281 89.8926-49.9023L80.2734-58.0078C79.7363-58.4473 79.1504-58.7402 78.2715-58.7402C76.5625-58.7402 75.4883-57.6172 75.4883-55.8105L75.4883-51.3184L72.4121-51.3184C67.5293-51.3184 63.9648-50.0977 60.5469-45.7031L56.7871-40.8691L51.9043-47.168C49.7559-49.9512 46.2402-51.3184 42.0898-51.3184L37.3047-51.3184C35.2539-51.3184 33.5449-49.6582 33.5449-47.6074C33.5449-45.5566 35.2539-43.7988 37.3047-43.7988L40.6738-43.7988C43.8477-43.7988 46.4355-42.7734 48.1934-40.5273L52.3438-35.1562L48.1934-29.7852C46.4355-27.5391 44.6777-26.4648 41.4062-26.4648L37.3047-26.4648C35.2539-26.4648 33.5449-24.8047 33.5449-22.7539Z"/>
  </g>
  <g id="Heavy-M" transform="matrix(1 0 0 1 2575.19 1126)">
   <path d="M61.5234 17.5293C90.5273 17.5293 114.258-6.20117 114.258-35.2051C114.258-64.2578 90.5273-87.9883 61.4746-87.9883C32.4707-87.9883 8.74023-64.2578 8.74023-35.2051C8.74023-6.20117 32.4707 17.5293 61.5234 17.5293ZM61.5234 1.61133C41.1133 1.61133 24.6582-14.8438 24.6582-35.2051C24.6582-55.6152 41.1133-72.0703 61.4746-72.0703C81.8848-72.0703 98.3398-55.6152 98.3398-35.2051C98.3398-14.8438 81.8848 1.61133 61.5234 1.61133ZM32.2754-22.6074C32.2754-20.5566 33.9355-18.9453 35.9863-18.9453L41.6016-18.9453C45.8496-18.9453 48.584-20.3613 51.0254-23.3398L55.957-29.5898L60.5469-23.7793C63.2812-20.3613 67.2363-18.9453 71.4844-18.9453L74.8535-18.9453L74.8535-14.502C74.8535-12.6953 75.9766-11.5723 77.6855-11.5723C78.5645-11.5723 79.1504-11.8652 79.7363-12.3047L89.3066-20.4102C90.625-21.4844 90.625-23.4375 89.3066-24.5605L79.7363-32.7148C79.1992-33.1543 78.5645-33.3984 77.6855-33.3984C75.9766-33.3984 74.8535-32.2754 74.8535-30.4688L74.8535-26.3184L71.6309-26.3184C68.5547-26.3184 66.6504-27.2949 64.8438-29.541L60.4004-35.1562L64.9414-40.8203C66.8945-43.3105 68.1641-44.043 71.0938-44.043L74.8535-44.043L74.8535-39.9414C74.8535-38.2324 75.9766-37.0117 77.6855-37.0117C78.5645-37.0117 79.1992-37.3047 79.7363-37.7441L89.3066-45.8984C90.625-47.0215 90.6738-48.9746 89.3066-50.0488L79.7363-58.1055C79.1504-58.5938 78.5645-58.8867 77.6855-58.8867C75.9766-58.8867 74.8535-57.7637 74.8535-55.957L74.8535-51.416L71.582-51.416C66.7969-51.416 63.4277-50.1465 60.0098-45.8984L55.957-40.7715L51.0254-47.0215C48.584-50.0488 45.2148-51.416 40.9668-51.416L35.9863-51.416C33.9355-51.416 32.2754-49.8047 32.2754-47.7539C32.2754-45.7031 33.9355-44.043 35.9863-44.043L39.9414-44.043C42.9199-44.043 45.2148-43.1152 47.0215-40.8203L51.5137-35.2051L47.0215-29.541C45.2148-27.2949 43.5547-26.3184 40.5273-26.3184L35.9863-26.3184C33.9355-26.3184 32.2754-24.6582 32.2754-22.6074Z"/>
  </g>
  <g id="Bold-M" transform="matrix(1 0 0 1 2279.5 1126)">
   <path d="M60.498 16.5039C88.8672 16.5039 112.207-6.83594 112.207-35.2051C112.207-63.623 88.8672-86.9629 60.4492-86.9629C32.0312-86.9629 8.74023-63.623 8.74023-35.2051C8.74023-6.83594 32.0801 16.5039 60.498 16.5039ZM60.498 3.22266C39.1602 3.22266 22.0703-13.916 22.0703-35.2051C22.0703-56.543 39.1602-73.6816 60.4492-73.6816C81.7383-73.6816 98.9258-56.543 98.9258-35.2051C98.9746-13.916 81.7871 3.22266 60.498 3.22266ZM30.8105-22.5098C30.8105-20.459 32.4219-18.8965 34.5215-18.8965L40.1855-18.8965C44.5312-18.8965 47.3145-20.3125 50-23.584L55.0293-29.6875L59.7656-23.877C62.6465-20.3125 66.2109-18.8965 70.6055-18.8965L74.1699-18.8965L74.1699-14.3066C74.1699-12.5488 75.293-11.377 77.0508-11.377C77.832-11.377 78.5156-11.6699 79.1016-12.1094L88.6719-20.166C90.0391-21.2891 90.0391-23.2422 88.6719-24.4141L79.1504-32.4707C78.6133-32.9102 77.8809-33.2031 77.0508-33.2031C75.293-33.2031 74.1699-32.0312 74.1699-30.2734L74.1699-26.0742L70.752-26.0742C67.9199-26.0742 66.1621-27.002 64.3066-29.248L59.4727-35.2051L64.3555-41.1621C66.3086-43.5547 67.627-44.2871 70.4102-44.2871L74.1699-44.2871L74.1699-40.1367C74.1699-38.3789 75.293-37.207 77.0508-37.207C77.8809-37.207 78.6133-37.5 79.1504-37.9395L88.6719-45.9961C90.0391-47.1191 90.0391-49.1211 88.6719-50.2441L79.1504-58.252C78.5645-58.7402 77.8809-59.0332 77.0508-59.0332C75.293-59.0332 74.1699-57.8613 74.1699-56.1035L74.1699-51.5137L70.7031-51.5137C65.9668-51.5137 62.793-50.1953 59.4238-46.0938L55.0293-40.6738L50-46.8262C47.3145-50.0977 44.1406-51.5137 39.7949-51.5137L34.5215-51.5137C32.4219-51.5137 30.8105-49.9512 30.8105-47.9004C30.8105-45.8984 32.4707-44.2871 34.5215-44.2871L39.1113-44.2871C41.8457-44.2871 43.7988-43.457 45.6543-41.1621L50.5371-35.2051L45.6543-29.248C43.7988-27.002 42.2363-26.0742 39.502-26.0742L34.5215-26.0742C32.4219-26.0742 30.8105-24.5605 30.8105-22.5098Z"/>
  </g>
  <g id="Semibold-M" transform="matrix(1 0 0 1 1983.5 1126)">
   <path d="M59.7656 15.8203C87.7441 15.8203 110.791-7.27539 110.791-35.2539C110.791-63.2324 87.6953-86.2793 59.7656-86.2793C31.7871-86.2793 8.74023-63.2324 8.74023-35.2539C8.74023-7.27539 31.7871 15.8203 59.7656 15.8203ZM59.7656 4.3457C37.8418 4.3457 20.2637-13.3301 20.2637-35.2539C20.2637-57.1777 37.793-74.8047 59.7656-74.8047C81.6895-74.8047 99.3164-57.1777 99.3652-35.2539C99.3652-13.3301 81.6895 4.3457 59.7656 4.3457ZM29.834-22.4121C29.834-20.3613 31.4453-18.8965 33.5449-18.8965L39.209-18.8965C43.6523-18.8965 46.4355-20.2637 49.3164-23.7305L54.3457-29.7852L59.2773-23.9258C62.2559-20.2637 65.5273-18.8965 70.0195-18.8965L73.6816-18.8965L73.6816-14.1602C73.6816-12.4023 74.8535-11.2305 76.6113-11.2305C77.3926-11.2305 78.0762-11.5234 78.7109-11.9629L88.2324-19.9707C89.6484-21.0938 89.6484-23.0957 88.2324-24.3164L78.7109-32.2754C78.1738-32.7637 77.3926-33.1055 76.6113-33.1055C74.8535-33.1055 73.6816-31.8848 73.6816-30.127L73.6816-25.9277L70.166-25.9277C67.4805-25.9277 65.8691-26.7578 63.9648-29.0527L58.8379-35.2051L63.9648-41.4062C65.918-43.75 67.2852-44.4824 69.9219-44.4824L73.6816-44.4824L73.6816-40.2832C73.6816-38.5254 74.8535-37.3047 76.6113-37.3047C77.3926-37.3047 78.1738-37.5977 78.7109-38.0859L88.2324-46.0449C89.6484-47.2168 89.6484-49.2188 88.2324-50.3906L78.7109-58.3984C78.125-58.8867 77.4414-59.1309 76.6113-59.1309C74.8535-59.1309 73.6816-57.959 73.6816-56.2012L73.6816-51.5625L70.0684-51.5625C65.4297-51.5625 62.4023-50.2441 59.0332-46.2402L54.3457-40.625L49.3164-46.6797C46.3867-50.1953 43.3594-51.5625 38.916-51.5625L33.5449-51.5625C31.4453-51.5625 29.834-50.0488 29.834-47.998C29.834-45.9961 31.4453-44.4824 33.5449-44.4824L38.5742-44.4824C41.1133-44.4824 42.8711-43.7012 44.7266-41.4062L49.8535-35.2051L44.7266-29.1016C42.8711-26.8066 41.3574-25.9277 38.8184-25.9277L33.5449-25.9277C31.3965-25.9277 29.834-24.4629 29.834-22.4121Z"/>
  </g>
  <g id="Medium-M" transform="matrix(1 0 0 1 1687.3 1126)">
   <path d="M59.2285 15.2344C86.9141 15.2344 109.766-7.61719 109.766-35.2539C109.766-62.8906 86.8652-85.7422 59.1797-85.7422C31.543-85.7422 8.74023-62.8906 8.74023-35.2539C8.74023-7.61719 31.5918 15.2344 59.2285 15.2344ZM59.2285 5.17578C36.8164 5.17578 18.8965-12.8418 18.8965-35.2539C18.8965-57.666 36.8164-75.6348 59.1797-75.6348C81.5918-75.6348 99.6094-57.666 99.6582-35.2539C99.707-12.8418 81.6406 5.17578 59.2285 5.17578ZM29.1016-22.3633C29.1016-20.3125 30.6641-18.8965 32.7637-18.8965L38.4766-18.8965C42.9688-18.8965 45.752-20.2637 48.7793-23.8281L53.8574-29.8828L58.8379-23.9258C61.9141-20.2637 65.0391-18.8965 69.5801-18.8965L73.291-18.8965L73.291-14.1113C73.291-12.3535 74.5117-11.1328 76.2695-11.1328C77.002-11.1328 77.7344-11.4258 78.3691-11.8652L87.8906-19.8242C89.3555-20.9961 89.3555-22.998 87.8906-24.2188L78.418-32.1777C77.832-32.666 77.0508-32.959 76.2695-32.959C74.5117-32.959 73.291-31.7871 73.291-30.0293L73.291-25.8301L69.7266-25.8301C67.1387-25.8301 65.625-26.6113 63.6719-28.9062L58.3496-35.2051L63.6719-41.5527C65.625-43.8965 67.041-44.6289 69.5801-44.6289L73.291-44.6289L73.291-40.3809C73.291-38.623 74.5117-37.4023 76.2695-37.4023C77.0508-37.4023 77.832-37.6953 78.418-38.2324L87.8906-46.0938C89.3555-47.2656 89.3555-49.3164 87.8906-50.4883L78.418-58.4473C77.832-58.9844 77.0996-59.2285 76.2695-59.2285C74.5117-59.2285 73.291-58.0566 73.291-56.2988L73.291-51.6113L69.5801-51.6113C64.9902-51.6113 62.0605-50.2441 58.7402-46.3379L53.8574-40.5762L48.7793-46.582C45.752-50.2441 42.7734-51.6113 38.2812-51.6113L32.7637-51.6113C30.6641-51.6113 29.1016-50.1465 29.1016-48.0957C29.1016-46.0938 30.6641-44.6289 32.7637-44.6289L38.1348-44.6289C40.5762-44.6289 42.1387-43.8477 44.043-41.5527L49.3652-35.2539L44.043-28.9551C42.1387-26.6602 40.6738-25.8301 38.2812-25.8301L32.7637-25.8301C30.6152-25.8301 29.1016-24.3652 29.1016-22.3633Z"/>
  </g>
  <g id="Regular-M" transform="matrix(1 0 0 1 1391.3 1126)">
   <path d="M58.5449 14.5508C85.791 14.5508 108.35-8.05664 108.35-35.2539C108.35-62.5 85.7422-85.0586 58.4961-85.0586C31.2988-85.0586 8.74023-62.5 8.74023-35.2539C8.74023-8.05664 31.3477 14.5508 58.5449 14.5508ZM58.5449 6.25C35.498 6.25 17.0898-12.207 17.0898-35.2539C17.0898-58.3008 35.4492-76.7578 58.4961-76.7578C81.543-76.7578 100-58.3008 100.049-35.2539C100.098-12.207 81.5918 6.25 58.5449 6.25ZM28.125-22.2656C28.125-20.2637 29.6387-18.8965 31.7871-18.8965L37.5-18.8965C42.041-18.8965 44.9219-20.2148 48.0957-23.9746L53.2227-29.9805L58.3496-23.9746C61.4746-20.2148 64.3555-18.8477 68.9941-18.8477L72.8027-18.8477L72.8027-13.9648C72.8027-12.207 74.0234-11.0352 75.7812-11.0352C76.5625-11.0352 77.2949-11.2793 77.9785-11.7676L87.5-19.6777C88.9648-20.8496 88.9648-22.9004 87.5-24.1699L78.0273-31.9824C77.3926-32.5195 76.6113-32.8613 75.7812-32.8613C74.0234-32.8613 72.8027-31.6406 72.8027-29.8828L72.8027-25.6836L69.0918-25.6836C66.6992-25.6836 65.2832-26.416 63.3301-28.7109L57.7148-35.2539L63.3301-41.7969C65.2832-44.0918 66.6504-44.8242 69.0918-44.8242L72.8027-44.8242L72.8027-40.4785C72.8027-38.7207 74.0234-37.5 75.7812-37.5C76.6113-37.5 77.3926-37.8418 78.0273-38.3789L87.5-46.1914C88.9648-47.3633 88.9648-49.4141 87.5-50.6348L78.0273-58.5449C77.3926-59.082 76.6602-59.3262 75.7812-59.3262C74.0234-59.3262 72.8027-58.1543 72.8027-56.3965L72.8027-51.709L68.9941-51.709C64.4531-51.709 61.6211-50.293 58.3496-46.4844L53.2227-40.5273L48.0957-46.4844C44.873-50.293 41.9922-51.709 37.5-51.709L31.7871-51.709C29.6387-51.709 28.125-50.2441 28.125-48.1934C28.125-46.1914 29.6875-44.8242 31.7871-44.8242L37.5977-44.8242C39.8438-44.8242 41.1621-44.0918 43.1152-41.7969L48.7305-35.2539L43.1152-28.7598C41.1621-26.4648 39.7949-25.6836 37.5977-25.6836L31.7871-25.6836C29.6387-25.6836 28.125-24.3164 28.125-22.2656Z"/>
  </g>
  <g id="Light-M" transform="matrix(1 0 0 1 1095.42 1126)">
   <path d="M57.7148 13.7207C84.5215 13.7207 106.689-8.44727 106.689-35.2539C106.689-62.1094 84.5215-84.2285 57.666-84.2285C30.8594-84.2285 8.74023-62.1094 8.74023-35.2539C8.74023-8.44727 30.9082 13.7207 57.7148 13.7207ZM57.7148 7.37305C34.082 7.37305 15.0879-11.6699 15.0879-35.2539C15.0879-58.8867 34.082-77.9297 57.666-77.9297C81.2988-77.9297 100.342-58.8867 100.391-35.2539C100.391-11.6699 81.3477 7.37305 57.7148 7.37305ZM27.6367-22.0703C27.6367-20.4102 28.9062-19.1895 30.7129-19.1895L36.5723-19.1895C41.0156-19.1895 43.7988-20.5078 46.9727-24.2676L52.4902-30.7617L58.0078-24.2676C61.1328-20.5078 63.916-19.1406 68.4082-19.1406L72.2168-19.1406L72.2168-13.6719C72.2168-12.1582 73.291-11.1816 74.8047-11.1816C75.4883-11.1816 76.123-11.377 76.709-11.8164L86.4258-19.6289C87.793-20.752 87.793-22.7051 86.4258-23.8281L76.709-31.5918C76.1719-32.0801 75.4883-32.3242 74.8047-32.3242C73.291-32.3242 72.2168-31.2988 72.2168-29.7852L72.2168-25L68.4082-25C65.8691-25 64.3066-25.7812 62.1582-28.3691L56.2988-35.2539L62.1582-42.1387C64.2578-44.6777 65.8691-45.5078 68.4082-45.5078L72.2168-45.5078L72.2168-40.625C72.2168-39.1113 73.291-38.0371 74.8047-38.0371C75.4883-38.0371 76.1719-38.3301 76.709-38.7695L86.4258-46.582C87.793-47.6562 87.793-49.6094 86.4258-50.7324L76.709-58.5449C76.1719-59.0332 75.5371-59.2285 74.8047-59.2285C73.291-59.2285 72.2168-58.2031 72.2168-56.6895L72.2168-51.3672L68.4082-51.3672C63.9648-51.3672 61.2305-50 58.0078-46.2402L52.4902-39.7461L46.9727-46.1914C43.75-50 41.0156-51.3672 36.5723-51.3672L30.7129-51.3672C28.9062-51.3672 27.6367-50.1465 27.6367-48.3887C27.6367-46.7285 28.9551-45.5078 30.7129-45.5078L36.7188-45.5078C39.1602-45.5078 40.6738-44.6777 42.8223-42.1387L48.6328-35.2539L42.8223-28.418C40.6738-25.8789 39.1113-25 36.7188-25L30.7129-25C28.9062-25 27.6367-23.7793 27.6367-22.0703Z"/>
  </g>
  <g id="Thin-M" transform="matrix(1 0 0 1 799.806 1126)">
   <path d="M56.6406 12.5977C82.9102 12.5977 104.492-8.98438 104.492-35.2539C104.492-61.5723 82.9102-83.1543 56.5918-83.1543C30.3223-83.1543 8.74023-61.5723 8.74023-35.2539C8.74023-8.98438 30.3223 12.5977 56.6406 12.5977ZM56.6406 8.88672C32.2266 8.88672 12.4512-10.8887 12.4512-35.2539C12.4512-59.6191 32.2266-79.4434 56.5918-79.4434C81.0059-79.4434 100.781-59.6191 100.781-35.2539C100.781-10.8887 81.0059 8.88672 56.6406 8.88672ZM27.002-21.8262C27.002-20.5566 27.9785-19.6289 29.248-19.6289L35.3516-19.6289C39.6484-19.6289 42.2852-20.8984 45.4102-24.5605L51.4648-31.7871L57.5684-24.5605C60.6934-20.8984 63.3301-19.5801 67.627-19.5801L71.4355-19.5801L71.4355-13.3301C71.4355-12.1094 72.2168-11.377 73.4863-11.377C74.0234-11.377 74.5117-11.5234 75.0488-11.9141L85.0586-19.6289C86.2793-20.6055 86.2305-22.4121 85.0586-23.3887L75.0488-31.1035C74.5117-31.4941 74.0723-31.6406 73.4863-31.6406C72.2168-31.6406 71.4355-30.8594 71.4355-29.6387L71.4355-24.0723L67.4805-24.0723C64.7949-24.0723 62.9883-25 60.5957-27.8809L54.3945-35.2539L60.5957-42.627C62.9395-45.5078 64.7949-46.4844 67.4805-46.4844L71.4355-46.4844L71.4355-40.7715C71.4355-39.5996 72.2168-38.7695 73.4863-38.7695C74.0723-38.7695 74.5117-38.9648 75.0488-39.3555L85.0586-47.1191C86.2793-48.0957 86.2305-49.9023 85.0586-50.7812L75.0488-58.4961C74.5117-58.9355 74.0723-59.082 73.4863-59.082C72.2168-59.082 71.4355-58.3496 71.4355-57.1289L71.4355-50.9277L67.627-50.9277C63.3301-50.9277 60.7422-49.6582 57.5684-45.9473L51.4648-38.7207L45.4102-45.8984C42.2852-49.6094 39.6484-50.9277 35.3516-50.9277L29.248-50.9277C27.9785-50.9277 27.002-50 27.002-48.6816C27.002-47.4121 28.0273-46.4355 29.248-46.4355L35.5957-46.4355C38.2324-46.4355 39.9902-45.5078 42.3828-42.5781L48.584-35.2539L42.3828-27.9297C39.9902-25.0488 38.2324-24.0723 35.5957-24.0723L29.248-24.0723C27.9785-24.0723 27.002-23.0469 27.002-21.8262Z"/>
  </g>
  <g id="Ultralight-M" transform="matrix(1 0 0 1 503.656 1126)">
   <path d="M56.0547 12.0605C82.0801 12.0605 103.369-9.22852 103.369-35.2539C103.369-61.2793 82.0801-82.5684 56.0547-82.5684C30.0293-82.5684 8.74023-61.2793 8.74023-35.2539C8.74023-9.22852 30.0293 12.0605 56.0547 12.0605ZM56.0547 9.66797C31.2988 9.66797 11.1328-10.498 11.1328-35.2539C11.1328-60.0586 31.2988-80.1758 56.0547-80.1758C80.8594-80.1758 100.977-60.0586 100.977-35.2539C100.977-10.498 80.8594 9.66797 56.0547 9.66797ZM26.6602-21.7285C26.6602-20.6055 27.4414-19.8242 28.5156-19.8242L34.7656-19.8242C38.9648-19.8242 41.5039-21.0449 44.6289-24.7559L50.9766-32.3242L57.3242-24.7559C60.4492-21.0449 62.9883-19.7754 67.2363-19.7754L71.0449-19.7754L71.0449-13.1348C71.0449-12.0605 71.7285-11.4746 72.8027-11.4746C73.291-11.4746 73.6816-11.5723 74.1699-11.9629L84.3262-19.6289C85.5469-20.5566 85.4492-22.2656 84.3262-23.1445L74.1699-30.8105C73.6816-31.2012 73.291-31.2988 72.8027-31.2988C71.7285-31.2988 71.0449-30.6152 71.0449-29.5898L71.0449-23.584L66.9922-23.584C64.209-23.584 62.3535-24.5605 59.7656-27.6367L53.418-35.2539L59.7656-42.8711C62.3047-45.8984 64.209-46.9727 66.9922-46.9727L71.0449-46.9727L71.0449-40.8691C71.0449-39.8438 71.7285-39.1602 72.8027-39.1602C73.291-39.1602 73.6816-39.2578 74.1699-39.6484L84.3262-47.3633C85.5469-48.291 85.4492-50.0488 84.3262-50.8301L74.1699-58.4961C73.6816-58.8867 73.291-58.9844 72.8027-58.9844C71.7285-58.9844 71.0449-58.3984 71.0449-57.3242L71.0449-50.6836L67.2363-50.6836C62.9883-50.6836 60.4492-49.4629 57.3242-45.8008L50.9766-38.1836L44.6289-45.7031C41.5039-49.4141 38.9648-50.6836 34.7656-50.6836L28.5156-50.6836C27.4414-50.6836 26.6602-49.9023 26.6602-48.7793C26.6602-47.7539 27.5391-46.875 28.5156-46.875L35.0098-46.875C37.7441-46.875 39.6484-45.8984 42.1875-42.8223L48.5352-35.2539L42.1875-27.6855C39.6484-24.6094 37.7441-23.584 35.0098-23.584L28.5156-23.584C27.5391-23.584 26.6602-22.7051 26.6602-21.7285Z"/>
  </g>
  <g id="Black-S" transform="matrix(1 0 0 1 2884.57 696)">
   <path d="M48.8281 6.78711C71.9727 6.78711 90.8203-12.0605 90.8203-35.2051C90.8203-58.3496 71.9727-77.1973 48.8281-77.1973C25.6836-77.1973 6.83594-58.3496 6.83594-35.2051C6.83594-12.0605 25.6836 6.78711 48.8281 6.78711ZM48.8281-7.37305C33.4473-7.37305 20.9961-19.8242 20.9961-35.2051C20.9961-50.5859 33.4473-63.0371 48.8281-63.0371C64.209-63.0371 76.6602-50.5859 76.6602-35.2051C76.6602-19.8242 64.209-7.37305 48.8281-7.37305ZM26.2207-25.4395C26.2207-23.7793 27.5391-22.4609 29.1504-22.4609L33.5449-22.4609C36.7676-22.4609 38.916-23.584 40.625-25.7812L44.4824-30.7129L47.9492-26.2207C50-23.584 53.3203-22.4609 56.5918-22.4609L59.1309-22.4609L59.1309-19.0918C59.1309-17.6758 59.9609-16.7969 61.3281-16.7969C62.0117-16.7969 62.4512-17.041 62.8906-17.3828L70.4102-23.7793C71.3867-24.6094 71.3867-26.123 70.4102-26.9531L62.8906-33.3984C62.5-33.7402 62.0117-33.9355 61.3281-33.9355C59.9609-33.9355 59.1309-33.0566 59.1309-31.6406L59.1309-28.3691L56.6895-28.3691C54.1504-28.3691 52.5391-29.1992 51.1719-30.957L47.9492-35.1562L51.2695-39.4043C52.7832-41.3574 53.7598-41.9434 56.1523-41.9434L59.1309-41.9434L59.1309-38.8184C59.1309-37.4512 59.9609-36.5234 61.3281-36.5234C62.0117-36.5234 62.5-36.7188 62.8906-37.0605L70.4102-43.5059C71.3867-44.3848 71.4355-45.8984 70.4102-46.7285L62.8906-53.0762C62.4512-53.418 62.0117-53.6621 61.3281-53.6621C59.9609-53.6621 59.1309-52.7832 59.1309-51.3672L59.1309-47.8516L56.6895-47.8516C52.8809-47.8516 50.0977-46.875 47.4121-43.457L44.4336-39.6484L40.625-44.5801C38.916-46.7773 36.1816-47.8516 32.9102-47.8516L29.1504-47.8516C27.5391-47.8516 26.2207-46.5332 26.2207-44.9219C26.2207-43.3105 27.5391-41.9434 29.1504-41.9434L31.8359-41.9434C34.3262-41.9434 36.3281-41.1621 37.6953-39.4043L40.9668-35.2051L37.6953-30.957C36.3281-29.1992 34.9609-28.3691 32.4219-28.3691L29.1504-28.3691C27.5391-28.3691 26.2207-27.0508 26.2207-25.4395Z"/>
  </g>
  <g id="Heavy-S" transform="matrix(1 0 0 1 2588.47 696)">
   <path d="M48.2422 6.15234C70.9961 6.15234 89.5996-12.4512 89.5996-35.2051C89.5996-57.959 70.9961-76.6113 48.1934-76.6113C25.4395-76.6113 6.83594-57.959 6.83594-35.2051C6.83594-12.4512 25.4395 6.15234 48.2422 6.15234ZM48.2422-6.39648C32.2754-6.39648 19.4336-19.2871 19.4336-35.2051C19.4336-51.1719 32.2754-64.0137 48.1934-64.0137C64.1602-64.0137 77.002-51.1719 77.0508-35.2051C77.0508-19.2871 64.1602-6.39648 48.2422-6.39648ZM25.293-25.3906C25.293-23.6816 26.6113-22.4121 28.2715-22.4121L32.666-22.4121C35.9863-22.4121 38.1836-23.5352 40.0879-25.9277L43.8965-30.7129L47.4609-26.2207C49.6094-23.5352 52.6855-22.4121 56.0547-22.4121L58.6914-22.4121L58.6914-18.9941C58.6914-17.5781 59.5703-16.6504 60.9863-16.6504C61.6699-16.6504 62.1582-16.8945 62.5977-17.2363L70.0684-23.584C71.0938-24.4629 71.0938-26.0254 70.0684-26.9043L62.5977-33.3008C62.207-33.6426 61.6699-33.8379 60.9863-33.8379C59.5703-33.8379 58.6914-32.959 58.6914-31.4941L58.6914-28.3203L56.1523-28.3203C53.8086-28.3203 52.2949-29.0527 50.9277-30.8105L47.4609-35.1562L51.0254-39.5996C52.4902-41.5039 53.4668-42.041 55.7617-42.041L58.6914-42.041L58.6914-38.916C58.6914-37.5488 59.5703-36.5723 60.9863-36.5723C61.6699-36.5723 62.207-36.8164 62.5977-37.1582L70.0684-43.5547C71.0938-44.4336 71.1426-45.9961 70.0684-46.875L62.5977-53.1738C62.1582-53.5645 61.6699-53.8086 60.9863-53.8086C59.5703-53.8086 58.6914-52.8809 58.6914-51.416L58.6914-47.9492L56.1035-47.9492C52.3438-47.9492 49.707-46.9238 47.0215-43.6035L43.8965-39.6484L40.0879-44.4824C38.1348-46.875 35.498-47.9492 32.1777-47.9492L28.2715-47.9492C26.6113-47.9492 25.293-46.6797 25.293-45.0195C25.293-43.3594 26.6113-42.041 28.2715-42.041L31.3477-42.041C33.6426-42.041 35.4004-41.3574 36.8164-39.5996L40.332-35.2051L36.8164-30.8105C35.4004-29.0527 34.1309-28.3203 31.8359-28.3203L28.2715-28.3203C26.6113-28.3203 25.293-27.002 25.293-25.3906Z"/>
  </g>
  <g id="Bold-S" transform="matrix(1 0 0 1 2292.44 696)">
   <path d="M47.5586 5.46875C69.873 5.46875 88.2324-12.8906 88.2324-35.2539C88.2324-57.5684 69.873-75.9277 47.5098-75.9277C25.1953-75.9277 6.83594-57.5684 6.83594-35.2539C6.83594-12.8906 25.1953 5.46875 47.5586 5.46875ZM47.5586-5.32227C30.957-5.32227 17.6758-18.6523 17.6758-35.2539C17.6758-51.8066 30.957-65.1367 47.5098-65.1367C64.1113-65.1367 77.4414-51.8066 77.4414-35.2539C77.4414-18.6523 64.1113-5.32227 47.5586-5.32227ZM24.2188-25.293C24.2188-23.6328 25.5371-22.3633 27.2949-22.3633L31.6895-22.3633C35.1074-22.3633 37.3047-23.4375 39.4531-26.0254L43.2617-30.7129L46.875-26.2695C49.1699-23.4375 51.9531-22.3633 55.4688-22.3633L58.252-22.3633L58.252-18.8965C58.252-17.4316 59.1797-16.5039 60.5957-16.5039C61.2305-16.5039 61.8164-16.748 62.3047-17.0898L69.7266-23.3887C70.8008-24.3164 70.8008-25.8789 69.7266-26.8066L62.3047-33.1543C61.8652-33.5449 61.2793-33.7891 60.5957-33.7891C59.1797-33.7891 58.252-32.8125 58.252-31.3477L58.252-28.2227L55.5664-28.2227C53.418-28.2227 52.0508-28.9062 50.6836-30.6152L46.9238-35.2051L50.7324-39.7949C52.1973-41.6016 53.1738-42.1875 55.3223-42.1875L58.252-42.1875L58.252-39.0625C58.252-37.6465 59.1797-36.6211 60.5957-36.6211C61.2793-36.6211 61.8652-36.8652 62.3047-37.2559L69.7266-43.5547C70.8008-44.4824 70.8496-46.0449 69.7266-47.0215L62.3047-53.2715C61.8652-53.6621 61.2793-53.9062 60.5957-53.9062C59.1797-53.9062 58.252-52.9785 58.252-51.5137L58.252-48.0469L55.5176-48.0469C51.8066-48.0469 49.2676-47.0215 46.6309-43.7988L43.2617-39.6973L39.4531-44.3848C37.3047-46.9727 34.7656-48.0469 31.3477-48.0469L27.2949-48.0469C25.5371-48.0469 24.2188-46.7773 24.2188-45.1172C24.2188-43.457 25.5371-42.1875 27.2949-42.1875L30.8594-42.1875C32.9102-42.1875 34.4238-41.5039 35.8398-39.7949L39.5508-35.2051L35.8398-30.6152C34.4238-28.9551 33.2031-28.2227 31.1523-28.2227L27.2949-28.2227C25.5371-28.2227 24.2188-27.002 24.2188-25.293Z"/>
  </g>
  <g id="Semibold-S" transform="matrix(1 0 0 1 1996.2 696)">
   <path d="M47.0703 4.98047C69.0918 4.98047 87.3047-13.1836 87.3047-35.2539C87.3047-57.2754 69.0918-75.4883 47.0215-75.4883C25-75.4883 6.83594-57.2754 6.83594-35.2539C6.83594-13.1836 25.0488 4.98047 47.0703 4.98047ZM47.0703-4.58984C30.0781-4.58984 16.4551-18.2129 16.4551-35.2539C16.4551-52.2461 30.0293-65.8691 47.0215-65.8691C64.0625-65.8691 77.6855-52.2461 77.7344-35.2539C77.7344-18.2129 64.0625-4.58984 47.0703-4.58984ZM23.4863-25.2441C23.4863-23.5352 24.8535-22.3145 26.6113-22.3145L31.0059-22.3145C34.4727-22.3145 36.7188-23.4375 39.0137-26.123L42.8223-30.7129L46.5332-26.2695C48.877-23.4375 51.4648-22.3145 55.0293-22.3145L57.9102-22.3145L57.9102-18.8477C57.9102-17.3828 58.8867-16.3574 60.3027-16.3574C60.9863-16.3574 61.5723-16.6016 62.0605-16.9922L69.4824-23.291C70.6055-24.2188 70.6055-25.7812 69.4824-26.8066L62.1094-33.0566C61.6211-33.4473 60.9863-33.6914 60.3027-33.6914C58.8867-33.6914 57.9102-32.7148 57.9102-31.25L57.9102-28.1738L55.1758-28.1738C53.125-28.1738 51.9043-28.8086 50.4883-30.5176L46.582-35.2051L50.4883-39.9414C52.002-41.6992 52.9785-42.2363 55.0293-42.2363L57.9102-42.2363L57.9102-39.1113C57.9102-37.6953 58.8867-36.6699 60.3027-36.6699C60.9863-36.6699 61.6211-36.9141 62.1094-37.3535L69.4824-43.6035C70.6055-44.5312 70.6055-46.1426 69.4824-47.1191L62.1094-53.3691C61.6211-53.7598 61.0352-54.0039 60.3027-54.0039C58.8867-54.0039 57.9102-53.0273 57.9102-51.5625L57.9102-48.1445L55.0781-48.1445C51.416-48.1445 48.9746-47.0703 46.3379-43.9453L42.8223-39.6973L39.0137-44.2871C36.7188-47.0215 34.2773-48.1445 30.7617-48.1445L26.6113-48.1445C24.8535-48.1445 23.4863-46.875 23.4863-45.166C23.4863-43.5059 24.8535-42.2363 26.6113-42.2363L30.4688-42.2363C32.4219-42.2363 33.6914-41.6504 35.1074-39.9414L39.0625-35.2051L35.1074-30.5176C33.6914-28.8574 32.5684-28.1738 30.6641-28.1738L26.6113-28.1738C24.8047-28.1738 23.4863-26.9531 23.4863-25.2441Z"/>
  </g>
  <g id="Medium-S" transform="matrix(1 0 0 1 1699.83 696)">
   <path d="M46.7285 4.63867C68.5547 4.63867 86.6211-13.4277 86.6211-35.2539C86.6211-57.0801 68.5059-75.1465 46.6797-75.1465C24.8535-75.1465 6.83594-57.0801 6.83594-35.2539C6.83594-13.4277 24.9023 4.63867 46.7285 4.63867ZM46.7285-4.00391C29.3945-4.00391 15.5273-17.9199 15.5273-35.2539C15.5273-52.5879 29.3457-66.4551 46.6797-66.4551C64.0137-66.4551 77.8809-52.5879 77.9297-35.2539C77.9785-17.9199 64.0625-4.00391 46.7285-4.00391ZM22.9492-25.1953C22.9492-23.5352 24.2676-22.3145 26.0742-22.3145L30.4688-22.3145C34.0332-22.3145 36.2793-23.3887 38.6719-26.2207L42.4805-30.7129L46.2402-26.2695C48.6328-23.3887 51.123-22.3145 54.7363-22.3145L57.666-22.3145L57.666-18.7988C57.666-17.2852 58.6426-16.3086 60.1074-16.3086C60.7422-16.3086 61.377-16.5527 61.9141-16.8945L69.2871-23.1934C70.459-24.1211 70.459-25.7324 69.2871-26.7578L61.9141-33.0078C61.4746-33.3984 60.791-33.6914 60.1074-33.6914C58.6426-33.6914 57.666-32.666 57.666-31.2012L57.666-28.1738L54.8828-28.1738C52.9297-28.1738 51.7578-28.7109 50.3418-30.4199L46.2891-35.2051L50.3418-40.0391C51.8066-41.7969 52.832-42.334 54.7852-42.334L57.666-42.334L57.666-39.209C57.666-37.7441 58.6426-36.7188 60.1074-36.7188C60.791-36.7188 61.4746-36.9629 61.9141-37.4023L69.2871-43.6035C70.459-44.5312 70.459-46.1426 69.2871-47.168L61.9141-53.418C61.4746-53.8574 60.8398-54.1016 60.1074-54.1016C58.6426-54.1016 57.666-53.0762 57.666-51.6113L57.666-48.1934L54.7363-48.1934C51.0742-48.1934 48.7793-47.1191 46.1426-44.043L42.4805-39.7461L38.6719-44.2383C36.2305-47.1191 33.8867-48.1934 30.3711-48.1934L26.0742-48.1934C24.2676-48.1934 22.9492-46.9727 22.9492-45.2148C22.9492-43.5547 24.2676-42.334 26.0742-42.334L30.2246-42.334C32.0312-42.334 33.2031-41.748 34.6191-40.0391L38.6719-35.2539L34.6191-30.4199C33.2031-28.7598 32.1289-28.1738 30.3223-28.1738L26.0742-28.1738C24.2676-28.1738 22.9492-26.9531 22.9492-25.1953Z"/>
  </g>
  <g id="Regular-S" transform="matrix(1 0 0 1 1403.58 696)">
   <path d="M46.2402 4.15039C67.7734 4.15039 85.6934-13.7207 85.6934-35.2539C85.6934-56.7871 67.7246-74.6582 46.1914-74.6582C24.707-74.6582 6.83594-56.7871 6.83594-35.2539C6.83594-13.7207 24.7559 4.15039 46.2402 4.15039ZM46.2402-3.27148C28.5156-3.27148 14.3555-17.4805 14.3555-35.2539C14.3555-53.0273 28.4668-67.2363 46.1914-67.2363C63.9648-67.2363 78.1738-53.0273 78.2227-35.2539C78.2715-17.4805 64.0137-3.27148 46.2402-3.27148ZM22.2168-25.1465C22.2168-23.4375 23.584-22.2656 25.4395-22.2656L29.7852-22.2656C33.4473-22.2656 35.6934-23.3398 38.2324-26.3184L42.041-30.7129L45.8496-26.3184C48.3398-23.3398 50.6348-22.2656 54.2969-22.2656L57.3242-22.2656L57.3242-18.7012C57.3242-17.2363 58.3984-16.1621 59.8633-16.1621C60.498-16.1621 61.1328-16.4062 61.6699-16.7969L69.043-23.0469C70.2148-24.0234 70.2148-25.6348 69.043-26.709L61.7188-32.9102C61.2305-33.3496 60.5469-33.5938 59.8633-33.5938C58.3984-33.5938 57.3242-32.5684 57.3242-31.1035L57.3242-28.125L54.4922-28.125C52.6367-28.125 51.6113-28.6133 50.1465-30.3223L45.8984-35.2539L50.1465-40.1855C51.6113-41.8945 52.5879-42.3828 54.4922-42.3828L57.3242-42.3828L57.3242-39.2578C57.3242-37.793 58.3984-36.7676 59.8633-36.7676C60.5469-36.7676 61.2305-37.0605 61.7188-37.4512L69.043-43.6035C70.2148-44.5801 70.2148-46.2402 69.043-47.2656L61.7188-53.5156C61.2305-53.9551 60.5469-54.1992 59.8633-54.1992C58.3984-54.1992 57.3242-53.125 57.3242-51.6602L57.3242-48.291L54.2969-48.291C50.6836-48.291 48.4863-47.168 45.8496-44.1406L42.041-39.7461L38.2324-44.1406C35.6445-47.168 33.3984-48.291 29.7852-48.291L25.4395-48.291C23.584-48.291 22.2168-47.0703 22.2168-45.3125C22.2168-43.6035 23.584-42.3828 25.4395-42.3828L29.834-42.3828C31.543-42.3828 32.4707-41.8945 33.9355-40.1855L38.1836-35.2539L33.9355-30.3223C32.4707-28.6621 31.4941-28.125 29.834-28.125L25.4395-28.125C23.5352-28.125 22.2168-26.9043 22.2168-25.1465Z"/>
  </g>
  <g id="Light-S" transform="matrix(1 0 0 1 1107.6 696)">
   <path d="M45.5078 3.41797C66.6992 3.41797 84.2285-14.0625 84.2285-35.2539C84.2285-56.4453 66.6504-73.9258 45.5078-73.9258C24.3164-73.9258 6.83594-56.4453 6.83594-35.2539C6.83594-14.0625 24.3652 3.41797 45.5078 3.41797ZM45.5078-2.29492C27.2461-2.29492 12.5977-16.9922 12.5977-35.2539C12.5977-53.5156 27.1973-68.2129 45.5078-68.2129C63.7695-68.2129 78.4668-53.5156 78.5156-35.2539C78.5156-16.9922 63.8184-2.29492 45.5078-2.29492ZM21.8262-25C21.8262-23.5352 22.9004-22.5586 24.4629-22.5586L29.0039-22.5586C32.5195-22.5586 34.7168-23.584 37.207-26.5137L41.4062-31.4453L45.5566-26.5137C48.0469-23.584 50.1953-22.5098 53.8086-22.5098L56.7871-22.5098L56.7871-18.457C56.7871-17.1875 57.666-16.3086 58.9844-16.3086C59.5215-16.3086 60.0586-16.5039 60.5469-16.8457L68.1152-23.0469C69.2383-23.9258 69.1895-25.4883 68.1152-26.416L60.5957-32.5684C60.1562-32.9102 59.5703-33.1543 58.9844-33.1543C57.666-33.1543 56.7871-32.2754 56.7871-31.0059L56.7871-27.4902L53.8574-27.4902C51.9043-27.4902 50.7324-28.0762 49.1211-29.9805L44.6289-35.2539L49.1211-40.5273C50.7324-42.4316 51.9043-43.0176 53.8574-43.0176L56.7871-43.0176L56.7871-39.4043C56.7871-38.1348 57.666-37.2559 58.9844-37.2559C59.5703-37.2559 60.1562-37.4512 60.5957-37.8418L68.1152-43.9453C69.2383-44.873 69.1895-46.4355 68.1152-47.3145L60.5957-53.5156C60.1562-53.9062 59.5703-54.1016 58.9844-54.1016C57.666-54.1016 56.7871-53.2227 56.7871-51.9531L56.7871-47.998L53.8086-47.998C50.293-47.998 48.1445-46.9238 45.5566-43.9453L41.3574-39.0625L37.207-43.9453C34.668-46.9238 32.4707-47.998 29.0039-47.998L24.4629-47.998C22.9004-47.998 21.8262-46.9727 21.8262-45.459C21.8262-44.043 22.9492-43.0176 24.4629-43.0176L29.1016-43.0176C30.9082-43.0176 32.0312-42.4316 33.6426-40.4785L38.1348-35.2539L33.6426-30.0293C32.0312-28.125 30.9082-27.4902 29.1016-27.4902L24.4629-27.4902C22.9004-27.4902 21.8262-26.4648 21.8262-25Z"/>
  </g>
  <g id="Thin-S" transform="matrix(1 0 0 1 811.867 696)">
   <path d="M44.5801 2.49023C65.2832 2.49023 82.2754-14.5508 82.2754-35.2539C82.2754-55.957 65.2344-72.998 44.5312-72.998C23.8281-72.998 6.83594-55.957 6.83594-35.2539C6.83594-14.5508 23.877 2.49023 44.5801 2.49023ZM44.5801-0.927734C25.5859-0.927734 10.2539-16.3086 10.2539-35.2539C10.2539-54.1992 25.5859-69.5801 44.5312-69.5801C63.5254-69.5801 78.8574-54.1992 78.8574-35.2539C78.8574-16.3086 63.5254-0.927734 44.5801-0.927734ZM21.2402-24.8047C21.2402-23.6816 22.0703-22.9004 23.1934-22.9004L27.9297-22.9004C31.3477-22.9004 33.3984-23.9258 35.8887-26.8066L40.5273-32.3242L45.166-26.8066C47.6074-23.9258 49.707-22.8516 53.125-22.8516L56.1035-22.8516L56.1035-18.1152C56.1035-17.1387 56.7871-16.5039 57.8125-16.5039C58.252-16.5039 58.6426-16.6016 59.082-16.9434L66.8945-22.998C67.8711-23.8281 67.8711-25.2441 66.8945-26.0254L59.082-32.0801C58.6914-32.4219 58.3008-32.5684 57.8125-32.5684C56.7871-32.5684 56.1035-31.8848 56.1035-30.9082L56.1035-26.6602L53.0273-26.6602C50.9766-26.6602 49.6094-27.3438 47.7539-29.5898L42.9688-35.2539L47.7539-40.918C49.5605-43.1152 50.9277-43.8477 53.0273-43.8477L56.1035-43.8477L56.1035-39.5508C56.1035-38.5254 56.7871-37.8906 57.8125-37.8906C58.3008-37.8906 58.6914-38.0371 59.082-38.3301L66.8945-44.4336C67.8711-45.2148 67.8711-46.6797 66.8945-47.4121L59.082-53.4668C58.6914-53.8086 58.3008-53.9551 57.8125-53.9551C56.7871-53.9551 56.1035-53.3203 56.1035-52.2949L56.1035-47.6074L53.125-47.6074C49.707-47.6074 47.6562-46.582 45.166-43.7012L40.4785-38.1348L35.8887-43.6523C33.3984-46.582 31.2988-47.6074 27.9297-47.6074L23.1934-47.6074C22.0703-47.6074 21.2402-46.8262 21.2402-45.7031C21.2402-44.6289 22.1191-43.7988 23.1934-43.7988L28.0762-43.7988C30.127-43.7988 31.4453-43.1152 33.3008-40.918L38.0371-35.2539L33.3008-29.5898C31.4453-27.3926 30.0781-26.6602 28.0762-26.6602L23.1934-26.6602C22.1191-26.6602 21.2402-25.8301 21.2402-24.8047Z"/>
  </g>
  <g id="Ultralight-S" transform="matrix(1 0 0 1 515.644 696)">
   <path d="M44.043 1.95312C64.502 1.95312 81.2988-14.7949 81.2988-35.2539C81.2988-55.7129 64.502-72.4609 44.043-72.4609C23.584-72.4609 6.83594-55.7129 6.83594-35.2539C6.83594-14.7949 23.584 1.95312 44.043 1.95312ZM44.043-0.244141C24.7559-0.244141 9.08203-15.9668 9.08203-35.2539C9.08203-54.541 24.7559-70.2637 44.043-70.2637C63.3789-70.2637 79.0527-54.541 79.0527-35.2539C79.0527-15.9668 63.3789-0.244141 44.043-0.244141ZM20.9473-24.707C20.9473-23.7793 21.6309-23.0957 22.5098-23.0957L27.3926-23.0957C30.7129-23.0957 32.7148-24.0723 35.1562-26.9531L40.0391-32.8125L44.9707-26.9531C47.4121-24.0723 49.4141-23.0469 52.7832-23.0469L55.7617-23.0469L55.7617-17.9688C55.7617-17.0898 56.2988-16.6016 57.2266-16.6016C57.6172-16.6016 57.9102-16.6992 58.3496-16.9922L66.2598-22.998C67.1875-23.7305 67.1387-25.1465 66.2598-25.8301L58.3496-31.8359C57.959-32.1289 57.6172-32.2266 57.2266-32.2266C56.2988-32.2266 55.7617-31.6895 55.7617-30.8105L55.7617-26.2207L52.5879-26.2207C50.4395-26.2207 49.0234-27.002 47.0215-29.3457L42.0898-35.2539L47.0215-41.1621C48.9746-43.457 50.4395-44.2871 52.5879-44.2871L55.7617-44.2871L55.7617-39.6484C55.7617-38.7695 56.2988-38.1836 57.2266-38.1836C57.6172-38.1836 57.959-38.3301 58.3496-38.623L66.2598-44.6777C67.1875-45.4102 67.1387-46.7773 66.2598-47.4609L58.3496-53.4668C57.959-53.7598 57.6172-53.8574 57.2266-53.8574C56.2988-53.8574 55.7617-53.3691 55.7617-52.4902L55.7617-47.4121L52.7832-47.4121C49.4141-47.4121 47.4121-46.4355 44.9707-43.5547L40.0391-37.6953L35.1562-43.5059C32.7148-46.3867 30.7129-47.4121 27.3926-47.4121L22.5098-47.4121C21.6309-47.4121 20.9473-46.7285 20.9473-45.8008C20.9473-44.9707 21.6797-44.2383 22.5098-44.2383L27.5391-44.2383C29.6875-44.2383 31.1035-43.457 33.1055-41.1133L38.0371-35.2539L33.1055-29.3945C31.1035-27.0508 29.6875-26.2207 27.5391-26.2207L22.5098-26.2207C21.6797-26.2207 20.9473-25.4883 20.9473-24.707Z"/>
  </g>
 </g>
</svg>
